# Blender 4.1.1
# www.blender.org
o Plane
v 40.000000 0.000000 -3.500013
v -40.000000 0.000000 -3.499987
v 40.000000 0.000000 3.499987
v -40.000000 0.000000 3.500013
v 40.000000 1.750007 -3.031112
v -40.000000 1.749993 -3.031066
v 40.000000 -1.749993 3.031066
v -40.000000 -1.750007 3.031112
v 39.999996 3.031106 -1.750023
v -40.000000 3.031072 -1.749977
v 40.000000 -3.031072 1.749977
v -39.999996 -3.031106 1.750023
v 39.999996 3.500026 -0.000022
v -40.000000 3.499974 0.000023
v 40.000000 -3.499974 -0.000023
v -39.999996 -3.500026 0.000022
v 39.999996 3.031123 1.749987
v -40.000004 3.031055 1.750013
v 40.000004 -3.031055 -1.750013
v -39.999996 -3.031123 -1.749987
v 39.999996 1.750036 3.031095
v -40.000004 1.749964 3.031083
v 40.000004 -1.749964 -3.031083
v -39.999996 -1.750036 -3.031095
vn -0.0000 1.0000 -0.0000
vn -0.0000 0.8660 0.5000
vn -0.0000 0.5000 0.8660
vn -0.0000 -0.0000 1.0000
vn -0.0000 -0.5000 0.8660
vn -0.0000 -0.8660 0.5000
vt 0.000000 0.000000
vt 1.000000 0.000000
vt 1.000000 1.000000
vt 0.000000 1.000000
s 0
usemtl btracer.png
f 1/1/1 2/2/1 4/3/1 3/4/1
f 5/1/2 6/2/2 8/3/2 7/4/2
f 9/1/3 10/2/3 12/3/3 11/4/3
f 13/1/4 14/2/4 16/3/4 15/4/4
f 17/1/5 18/2/5 20/3/5 19/4/5
f 21/1/6 22/2/6 24/3/6 23/4/6
